<svg height="480pt" viewBox="-80 0 480 480" width="480pt" xmlns="http://www.w3.org/2000/svg"><path d="m40 120v-16c0-57.441406 46.558594-104 104-104h32c57.441406 0 104 46.558594 104 104v16" fill="#555c47"/><path d="m104 288-70.121094 21.574219c-20.136718 6.195312-33.878906 24.800781-33.878906 45.875v124.550781h320v-124.550781c0-21.074219-13.742188-39.679688-33.878906-45.882813l-70.121094-21.566406" fill="#555c47"/><path d="m256 360h-192c-8.839844 0-16 7.160156-16 16v104h224v-104c0-8.839844-7.160156-16-16-16zm0 0" fill="#2b3128"/><path d="m104 368-40-88-40 16 40 88zm0 0" fill="#909564"/><path d="m216 368 40-88 40 16-40 88zm0 0" fill="#909564"/><path d="m104 288c0 26.511719 21.488281 48 48 48h16c26.511719 0 48-21.488281 48-48" fill="#efbe9a"/><path d="m264 144v56c0 57.441406-46.558594 104-104 104s-104-46.558594-104-104v-56" fill="#db9b7c"/><path d="m148 303.257812c51.777344-5.960937 92-49.882812 92-103.257812v-56h-184v56c0 53.375 40.222656 97.296875 92 103.257812zm0 0" fill="#efbe9a"/><path d="m264 144v40l-16 16h-57.375c-4.242188 0-8.3125-1.6875-11.3125-4.6875l-5.65625-5.65625c-3.625-3.625-8.535156-5.65625-13.65625-5.65625s-10.03125 2.03125-13.65625 5.65625l-5.65625 5.65625c-3 3-7.070312 4.6875-11.3125 4.6875h-57.375l-16-16v-40" fill="#695b52"/><g fill="#909564"><path d="m32 168 24-24h208l24 24h24c0-39.769531-32.230469-72-72-72h-160c-39.769531 0-72 32.230469-72 72zm0 0"/><path d="m48 400h224v16h-224zm0 0"/><path d="m48 448h224v16h-224zm0 0"/></g><path d="m144 264h32v16h-32zm0 0" fill="#857970"/><path d="m208 254.113281c-6.832031-13.640625-20.527344-22.113281-35.777344-22.113281h-24.453125c-15.242187 0-28.945312 8.472656-35.777343 22.113281l-14.457032 28.910157c4.28125 3.222656 8.761719 6.191406 13.519532 8.738281l15.242187-30.488281c4.109375-8.183594 12.335937-13.273438 21.480469-13.273438h24.453125c9.144531 0 17.371093 5.089844 21.464843 13.265625l15.242188 30.488281c4.757812-2.546875 9.238281-5.515625 13.519531-8.738281zm0 0" fill="#857970"/><path d="m45.070312 72h66.929688c4.425781 0 8-3.574219 8-8v-24h-16v16h-52.207031c-2.664063 5.105469-4.929688 10.441406-6.722657 16zm0 0" fill="#909564"/><path d="m184 72h-16v-32h-24c-4.425781 0-8-3.574219-8-8v-32h16v24h24c4.425781 0 8 3.574219 8 8zm0 0" fill="#909564"/><path d="m216 96h-16v-32c0-4.425781 3.574219-8 8-8h8v-16h16v24c0 4.425781-3.574219 8-8 8h-8zm0 0" fill="#2b3128"/><path d="m136 56h16v40h-16zm0 0" fill="#2b3128"/><path d="m268.207031 56h-20.207031v16h26.929688c-1.792969-5.558594-4.058594-10.894531-6.722657-16zm0 0" fill="#909564"/></svg>